<svg width="47" height="47" viewBox="0 0 47 47" fill="none" xmlns="http://www.w3.org/2000/svg">
<path d="M8.54996 41.5843V39.1638C8.56417 38.9602 8.53479 38.7559 8.46381 38.5646C8.39284 38.3733 8.28188 38.1993 8.13834 38.0542C7.99481 37.9091 7.82199 37.7964 7.63142 37.7234C7.44085 37.6504 7.23692 37.6188 7.0332 37.6309C6.76659 37.6135 6.50019 37.668 6.26179 37.7886C6.02339 37.9092 5.82171 38.0915 5.67777 38.3166C5.54658 38.0983 5.35894 37.9193 5.1346 37.7986C4.91025 37.6779 4.65752 37.62 4.40301 37.6309C4.18115 37.6197 3.96022 37.6667 3.76211 37.7672C3.564 37.8677 3.39556 38.0181 3.27347 38.2037V37.7277H2.43436V41.5843H3.2815V39.4462C3.26318 39.3142 3.27432 39.1799 3.31409 39.0528C3.35387 38.9256 3.4213 38.8089 3.51155 38.7109C3.6018 38.613 3.71262 38.5362 3.83606 38.4862C3.9595 38.4362 4.0925 38.4141 4.22548 38.4215C4.78218 38.4215 5.0646 38.7846 5.0646 39.4381V41.5843H5.91174V39.4462C5.8948 39.3145 5.9069 39.1807 5.94718 39.0542C5.98746 38.9276 6.05496 38.8115 6.14492 38.7138C6.23488 38.6162 6.34513 38.5394 6.46793 38.4889C6.59072 38.4384 6.72308 38.4154 6.85571 38.4215C7.42851 38.4215 7.70282 38.7846 7.70282 39.4381V41.5843H8.54996ZM21.0878 37.7277H19.7162V36.5578H18.8691V37.7277H18.0864V38.4942H18.8691V40.253C18.8691 41.1485 19.216 41.6811 20.2084 41.6811C20.5791 41.6822 20.9426 41.5787 21.2572 41.3825L21.0152 40.6645C20.7902 40.7987 20.5348 40.8737 20.2729 40.8823C19.8534 40.8823 19.7162 40.6241 19.7162 40.2369V38.4942H21.0878V37.7277ZM28.2442 37.6309C28.0396 37.6248 27.8372 37.6741 27.6583 37.7735C27.4794 37.8729 27.3306 38.0188 27.2276 38.1956V37.7277H26.3966V41.5843H27.2357V39.422C27.2357 38.7846 27.51 38.4296 28.0587 38.4296C28.2381 38.4271 28.4163 38.46 28.583 38.5264L28.8412 37.7357C28.6496 37.6672 28.4477 37.6317 28.2442 37.6309ZM17.4249 38.0343C16.9499 37.7519 16.4039 37.6118 15.8516 37.6309C14.8754 37.6309 14.2461 38.0988 14.2461 38.8653C14.2461 39.4946 14.714 39.8819 15.5772 40.0029L15.9726 40.0593C16.4325 40.1238 16.6503 40.2449 16.6503 40.4627C16.6503 40.7612 16.3437 40.9307 15.7709 40.9307C15.3101 40.944 14.8583 40.8019 14.4881 40.5273L14.0928 41.1808C14.5815 41.5221 15.1669 41.6975 15.7628 41.6811C16.8762 41.6811 17.5216 41.1566 17.5216 40.4224C17.5216 39.7447 17.0134 39.3897 16.1743 39.2686L15.779 39.2122C15.4159 39.1638 15.1255 39.0912 15.1255 38.8331C15.1255 38.5506 15.3997 38.3812 15.8597 38.3812C16.282 38.3876 16.6957 38.5014 17.0618 38.712L17.4249 38.0343ZM39.9025 37.6309C39.698 37.6248 39.4955 37.6741 39.3166 37.7735C39.1377 37.8729 38.9889 38.0188 38.886 38.1956V37.7277H38.055V41.5843H38.894V39.422C38.894 38.7846 39.1684 38.4296 39.7169 38.4296C39.8964 38.4271 40.0747 38.46 40.2415 38.5264L40.4996 37.7357C40.308 37.6672 40.1061 37.6317 39.9025 37.6309ZM29.0913 39.6559C29.0801 39.9276 29.126 40.1986 29.2259 40.4515C29.3258 40.7044 29.4775 40.9336 29.6713 41.1244C29.865 41.3151 30.0966 41.4632 30.3511 41.5591C30.6055 41.655 30.8772 41.6965 31.1487 41.6811C31.6525 41.7064 32.1475 41.5423 32.5364 41.2211L32.133 40.5434C31.8429 40.7645 31.4892 40.8862 31.1245 40.8903C30.81 40.8713 30.5147 40.7329 30.2988 40.5035C30.0829 40.2741 29.9627 39.971 29.9627 39.6559C29.9627 39.3409 30.0829 39.0378 30.2988 38.8084C30.5147 38.579 30.81 38.4406 31.1245 38.4215C31.4892 38.4257 31.8429 38.5473 32.133 38.7685L32.5364 38.0907C32.1474 37.7696 31.6525 37.6056 31.1487 37.6309C30.8773 37.6154 30.6056 37.657 30.3511 37.7529C30.0967 37.8487 29.8651 37.9968 29.6713 38.1875C29.4775 38.3782 29.3258 38.6074 29.2259 38.8603C29.126 39.1132 29.0802 39.3842 29.0913 39.6559ZM36.9496 39.6559V37.7277H36.1105V38.1956C35.9673 38.0111 35.782 37.8635 35.57 37.7652C35.3581 37.667 35.1257 37.6209 34.8923 37.6309C34.3723 37.6564 33.8821 37.8809 33.5232 38.2578C33.1642 38.6348 32.964 39.1354 32.964 39.656C32.964 40.1765 33.1642 40.6771 33.5232 41.0541C33.8821 41.4311 34.3723 41.6556 34.8923 41.6811C35.1257 41.691 35.3581 41.645 35.57 41.5467C35.782 41.4484 35.9673 41.3008 36.1105 41.1162V41.5843H36.9496V39.6559ZM33.8273 39.6559C33.8403 39.4283 33.9196 39.2095 34.0555 39.0265C34.1914 38.8435 34.3778 38.7042 34.5919 38.6259C34.806 38.5476 35.0383 38.5336 35.2602 38.5858C35.4821 38.6379 35.6839 38.7539 35.8407 38.9193C35.9975 39.0847 36.1024 39.2925 36.1426 39.5169C36.1828 39.7412 36.1564 39.9725 36.0667 40.182C35.977 40.3916 35.828 40.5703 35.6379 40.6962C35.4479 40.822 35.2251 40.8895 34.9972 40.8903C34.8374 40.8925 34.6789 40.8616 34.5317 40.7994C34.3845 40.7373 34.2518 40.6453 34.1418 40.5294C34.0319 40.4134 33.9472 40.2759 33.8931 40.1256C33.8389 39.9752 33.8165 39.8153 33.8273 39.6559ZM23.7019 37.6309C23.1786 37.6584 22.6864 37.8875 22.3284 38.2702C21.9704 38.6528 21.7745 39.1592 21.7818 39.6832C21.7891 40.2071 21.999 40.7078 22.3676 41.0803C22.7361 41.4528 23.2345 41.6681 23.7584 41.6811C24.334 41.7013 24.8969 41.5088 25.3397 41.1404L24.9282 40.5192C24.6096 40.7746 24.215 40.9165 23.8067 40.9226C23.5295 40.9459 23.254 40.8605 23.0387 40.6843C22.8233 40.5081 22.685 40.255 22.653 39.9786H25.5172C25.5253 39.8738 25.5333 39.7689 25.5333 39.6559C25.5253 38.4538 24.783 37.6309 23.7019 37.6309ZM23.6857 38.3812C23.9391 38.3763 24.1842 38.472 24.3672 38.6474C24.5502 38.8229 24.6562 39.0637 24.662 39.3171H22.6611C22.6758 39.0582 22.7912 38.8153 22.9827 38.6404C23.1742 38.4655 23.4265 38.3725 23.6857 38.3812ZM44.7353 39.6559V36.1787H43.8962V38.1956C43.753 38.0111 43.5677 37.8635 43.3557 37.7652C43.1438 37.667 42.9114 37.6209 42.678 37.6309C42.158 37.6563 41.6678 37.8808 41.3088 38.2578C40.9499 38.6348 40.7497 39.1354 40.7497 39.656C40.7497 40.1765 40.9499 40.6772 41.3088 41.0541C41.6678 41.4311 42.158 41.6556 42.678 41.6811C42.9114 41.691 43.1438 41.645 43.3557 41.5467C43.5677 41.4484 43.753 41.3008 43.8962 41.1162V41.5843H44.7353V39.6559ZM46.134 41.0253C46.1862 41.025 46.2378 41.0352 46.2858 41.0554C46.332 41.0747 46.3741 41.1026 46.4099 41.1376C46.4453 41.1726 46.4737 41.214 46.4934 41.2598C46.5136 41.3067 46.524 41.3573 46.524 41.4084C46.524 41.4596 46.5136 41.5102 46.4934 41.5571C46.4736 41.6026 46.4452 41.6439 46.4099 41.6788C46.374 41.7138 46.332 41.7418 46.2858 41.7614C46.2379 41.7819 46.1862 41.7924 46.134 41.792C46.0573 41.7928 45.982 41.7709 45.9176 41.7291C45.8532 41.6874 45.8025 41.6275 45.7719 41.5571C45.7518 41.5102 45.7414 41.4596 45.7414 41.4084C45.7414 41.3573 45.7518 41.3067 45.7719 41.2598C45.7916 41.2141 45.8198 41.1726 45.8551 41.1376C45.8908 41.1023 45.9331 41.0744 45.9796 41.0554C46.0285 41.0352 46.0811 41.0249 46.134 41.0253ZM46.134 41.7074C46.1738 41.7077 46.2132 41.6997 46.2497 41.6839C46.2847 41.6687 46.3166 41.6471 46.3436 41.62C46.3993 41.5638 46.4305 41.4878 46.4305 41.4086C46.4305 41.3295 46.3993 41.2535 46.3436 41.1972C46.3166 41.1703 46.2847 41.1488 46.2497 41.1339C46.2131 41.1183 46.1738 41.1105 46.134 41.1108C46.0936 41.1105 46.0535 41.1184 46.0162 41.1339C45.9805 41.1485 45.9482 41.1701 45.9208 41.1972C45.8651 41.2535 45.8338 41.3294 45.8338 41.4086C45.8338 41.4878 45.8651 41.5638 45.9208 41.62C45.9482 41.6473 45.9806 41.669 46.0162 41.6839C46.0535 41.6997 46.0936 41.7077 46.134 41.7074ZM46.1566 41.2292C46.1943 41.2267 46.2318 41.2375 46.2624 41.2598C46.2745 41.2698 46.2842 41.2825 46.2907 41.297C46.2971 41.3114 46.3001 41.3271 46.2994 41.3429C46.2999 41.3564 46.2974 41.3699 46.2923 41.3824C46.2873 41.3949 46.2796 41.4063 46.2699 41.4156C46.2465 41.4364 46.2169 41.4488 46.1857 41.4509L46.3022 41.5853H46.2111L46.1031 41.4518H46.0683V41.5853H45.9922V41.2292H46.1566ZM46.0683 41.2959V41.3908H46.1557C46.1725 41.3917 46.1892 41.3876 46.2036 41.379C46.2095 41.3751 46.2143 41.3697 46.2174 41.3634C46.2205 41.357 46.2219 41.35 46.2214 41.3429C46.2218 41.336 46.2204 41.3291 46.2173 41.3229C46.2141 41.3167 46.2094 41.3114 46.2036 41.3076C46.1891 41.2992 46.1725 41.2951 46.1557 41.2959H46.0683ZM41.613 39.6559C41.626 39.4283 41.7054 39.2096 41.8413 39.0265C41.9771 38.8435 42.1636 38.7043 42.3777 38.626C42.5917 38.5477 42.824 38.5338 43.0459 38.5859C43.2678 38.6381 43.4696 38.754 43.6264 38.9194C43.7832 39.0849 43.8881 39.2926 43.9283 39.517C43.9684 39.7413 43.942 39.9726 43.8523 40.1821C43.7626 40.3917 43.6136 40.5704 43.4235 40.6962C43.2335 40.8221 43.0108 40.8896 42.7828 40.8903C42.6231 40.8925 42.4646 40.8615 42.3174 40.7994C42.1702 40.7373 42.0374 40.6453 41.9275 40.5293C41.8176 40.4134 41.7329 40.2759 41.6788 40.1255C41.6247 39.9752 41.6023 39.8153 41.613 39.6559ZM13.2779 39.6559V37.7277H12.4388V38.1956C12.2956 38.0111 12.1102 37.8635 11.8983 37.7652C11.6863 37.667 11.4539 37.6209 11.2205 37.6309C10.7006 37.6564 10.2104 37.8809 9.85142 38.2578C9.49246 38.6348 9.29225 39.1354 9.29225 39.656C9.29225 40.1765 9.49246 40.6771 9.85142 41.0541C10.2104 41.4311 10.7006 41.6556 11.2205 41.6811C11.4539 41.691 11.6863 41.645 11.8983 41.5467C12.1102 41.4484 12.2956 41.3008 12.4388 41.1162V41.5843H13.2779V39.6559ZM10.1556 39.6559C10.1686 39.4283 10.2479 39.2096 10.3838 39.0265C10.5197 38.8435 10.7062 38.7043 10.9202 38.626C11.1343 38.5477 11.3666 38.5338 11.5885 38.5859C11.8104 38.6381 12.0122 38.754 12.1689 38.9194C12.3257 39.0849 12.4307 39.2926 12.4708 39.517C12.511 39.7414 12.4846 39.9726 12.3949 40.1821C12.3052 40.3917 12.1561 40.5704 11.9661 40.6962C11.776 40.8221 11.5533 40.8896 11.3254 40.8903C11.1656 40.8925 11.0071 40.8615 10.8599 40.7994C10.7127 40.7373 10.58 40.6453 10.4701 40.5293C10.3602 40.4134 10.2755 40.2759 10.2214 40.1255C10.1672 39.9752 10.1448 39.8153 10.1556 39.6559Z" fill="#F5F5F5"/>
<path d="M29.8549 8.33698H17.146V31.1754H29.8549V8.33698Z" fill="#FF5F00"/>
<path d="M17.9528 19.757C17.9508 17.5575 18.4492 15.3863 19.4103 13.4079C20.3714 11.4295 21.77 9.69573 23.5003 8.33777C21.3576 6.65359 18.7843 5.60622 16.0746 5.31537C13.3648 5.02453 10.6278 5.50195 8.17657 6.69307C5.7253 7.88418 3.65859 9.74093 2.21268 12.0511C0.766777 14.3613 0 17.0316 0 19.757C0 22.4823 0.766777 25.1527 2.21268 27.4628C3.65859 29.773 5.7253 31.6297 8.17657 32.8209C10.6278 34.012 13.3648 34.4894 16.0746 34.1986C18.7843 33.9077 21.3576 32.8603 23.5003 31.1762C21.7701 29.8182 20.3714 28.0844 19.4103 26.106C18.4492 24.1276 17.9508 21.9565 17.9528 19.757Z" fill="#EB001B"/>
<path d="M47 19.757C47.0001 22.4823 46.2334 25.1526 44.7876 27.4628C43.3418 29.7729 41.2751 31.6297 38.8239 32.8208C36.3727 34.012 33.6358 34.4894 30.9261 34.1986C28.2163 33.9077 25.6431 32.8603 23.5005 31.1762C25.2292 29.8168 26.6267 28.0827 27.5877 26.1046C28.5486 24.1266 29.0479 21.9561 29.0479 19.757C29.0479 17.5578 28.5486 15.3874 27.5877 13.4093C26.6267 11.4312 25.2292 9.6971 23.5005 8.33777C25.6431 6.65358 28.2163 5.60621 30.9261 5.31537C33.6358 5.02453 36.3727 5.50196 38.8239 6.69309C41.2751 7.88422 43.3418 9.74098 44.7876 12.0511C46.2334 14.3613 47.0001 17.0317 47 19.757Z" fill="#F79E1B"/>
<path d="M45.6143 28.7567V28.2892H45.8029V28.1939H45.3227V28.2892H45.5113V28.7567H45.6143ZM46.5465 28.7567V28.193H46.3994L46.2301 28.5808L46.0607 28.193H45.9135V28.7567H46.0174V28.3315L46.1762 28.6981H46.2839L46.4427 28.3306V28.7567H46.5465Z" fill="#F79E1B"/>
</svg>
