<svg width="24" height="24" viewBox="0 0 24 24" fill="none" xmlns="http://www.w3.org/2000/svg">
<path d="M5 11C6.10457 11 7 11.8954 7 13V14.5C7 14.7761 7.22386 15 7.5 15H16.5C16.7761 15 17 14.7761 17 14.5V13C17 11.8954 17.8954 11 19 11M5 11C3.89543 11 3 11.8954 3 13V17C3 18.1046 3.89543 19 5 19H19C20.1046 19 21 18.1046 21 17V13C21 11.8954 20.1046 11 19 11M5 11V10C5 6.13401 8.13401 3 12 3C15.866 3 19 6.13401 19 10V11M11 8H13M6 19V21M18 19V21" stroke="#FF715E" stroke-width="1.5" stroke-linecap="round"/>
</svg>
