<svg width="20" height="20" viewBox="0 0 20 20" fill="none" xmlns="http://www.w3.org/2000/svg">
<path d="M9.99998 19.1667C15.0626 19.1667 19.1666 15.0626 19.1666 10C19.1666 4.9374 15.0626 0.833344 9.99998 0.833344M9.99998 19.1667C4.93737 19.1667 0.833313 15.0626 0.833313 10C0.833313 4.9374 4.93737 0.833344 9.99998 0.833344M9.99998 19.1667C11.8409 19.1667 13.3333 15.0626 13.3333 10C13.3333 4.9374 11.8409 0.833344 9.99998 0.833344M9.99998 19.1667C8.15903 19.1667 6.66665 15.0626 6.66665 10C6.66665 4.9374 8.15903 0.833344 9.99998 0.833344M1.66665 6.66668H18.3333M1.66665 12.5H18.3333" stroke="#87FFDB" stroke-width="1.5" stroke-linecap="round"/>
</svg>
