<svg width="24" height="24" viewBox="0 0 24 24" fill="none" xmlns="http://www.w3.org/2000/svg">
<path d="M16 21H8.00003C6.89546 21 6.00003 20.1046 6.00003 19V11.5671C6.00003 10.9888 5.30084 10.6992 4.89193 11.1081C4.5186 11.4814 3.87946 11.2766 3.79266 10.7558L3.22389 7.34318C3.08881 6.53273 3.46315 5.72212 4.16769 5.2994L7.81457 3.11127C7.92078 3.04754 8.05775 3.07216 8.13513 3.16888C10.1165 5.64563 13.8835 5.64563 15.8649 3.16888C15.9423 3.07216 16.0793 3.04754 16.1855 3.11127L19.8324 5.2994C20.5369 5.72212 20.9112 6.53273 20.7762 7.34318L20.2074 10.7558C20.1206 11.2766 19.4815 11.4814 19.1081 11.1081C18.6992 10.6992 18 10.9888 18 11.5671V19C18 20.1046 17.1046 21 16 21Z" stroke="#25D757" stroke-width="1.5"/>
</svg>
