<svg width="24" height="24" viewBox="0 0 24 24" fill="none" xmlns="http://www.w3.org/2000/svg">
<path d="M6.39683 15C8.25864 16.8314 10.5539 18.8797 11.5249 19.7368C11.6882 19.881 11.7699 19.9531 11.8652 19.9815C11.9483 20.0062 12.0393 20.0062 12.1225 19.9815C12.2178 19.9531 12.2994 19.881 12.4628 19.7368C13.4337 18.8797 15.729 16.8314 17.5908 15C18.5288 14.0774 19.3567 13.2097 19.8499 12.5771C20.231 12.0883 20.5172 11.555 20.7087 11H13.309C13.1196 11 12.9465 11.107 12.8618 11.2764L11.4821 14.0358C11.2917 14.4165 10.743 14.4004 10.5753 14.0091L8.3636 8.84839C8.20719 8.48343 7.70825 8.43762 7.488 8.768L6.14843 10.7774C6.0557 10.9164 5.89958 11 5.73241 11H3.28242C3.06092 10.3506 2.9704 9.67199 3.00843 9C3.08859 7.58373 3.73975 6.19689 4.93923 5.17528C7.19377 3.25504 10.1944 3.81913 11.9938 5.91615C13.7933 3.81913 16.7551 3.27524 19.0484 5.17528C19.68 5.69854 20.1588 6.32273 20.484 7" stroke="#FF78C9" stroke-width="1.5" stroke-linecap="round" stroke-linejoin="round"/>
</svg>
