<svg width="24" height="24" viewBox="0 0 24 24" fill="none" xmlns="http://www.w3.org/2000/svg">
<path d="M21 6.47442C20.2511 5.41087 19.3184 4.48604 18.2481 3.74609C17.5346 3.25279 16.5844 3.41555 15.9711 4.02891L15 4.99999M3 6.47442C3.74895 5.41087 4.68165 4.48604 5.75193 3.74609C6.46544 3.25279 7.41555 3.41555 8.02892 4.02891L9 4.99999M9 11V12M15 11V12M11 14H13M10.5 17C11.3284 17 12 16.3284 12 15.5M12 15.5C12 16.3284 12.6716 17 13.5 17M12 15.5V14M20 13C20 17.4183 16.4183 21 12 21C7.58172 21 4 17.4183 4 13C4 8.58172 7.58172 4.99999 12 4.99999C16.4183 4.99999 20 8.58172 20 13Z" stroke="#B18CFF" stroke-width="1.5" stroke-linecap="round"/>
</svg>
