<svg width="54" height="54" viewBox="0 0 54 54" fill="none" xmlns="http://www.w3.org/2000/svg">
<rect width="54" height="54" rx="16" fill="#864CFF"/>
<path d="M31.0625 26.1094V35.125C30.7083 35.5521 30.1615 36.0156 29.4219 36.5156C28.6823 37.0052 27.7292 37.4271 26.5625 37.7812C25.3958 38.1354 23.9844 38.3125 22.3281 38.3125C20.8594 38.3125 19.5208 38.0729 18.3125 37.5938C17.1042 37.1042 16.0625 36.3906 15.1875 35.4531C14.3229 34.5156 13.6562 33.3698 13.1875 32.0156C12.7188 30.651 12.4844 29.0938 12.4844 27.3438V25.9219C12.4844 24.1719 12.7083 22.6146 13.1562 21.25C13.6146 19.8854 14.2656 18.7344 15.1094 17.7969C15.9531 16.8594 16.9583 16.1458 18.125 15.6562C19.2917 15.1667 20.5885 14.9219 22.0156 14.9219C23.9948 14.9219 25.6198 15.2448 26.8906 15.8906C28.1615 16.526 29.1302 17.4115 29.7969 18.5469C30.474 19.6719 30.8906 20.9635 31.0469 22.4219H26.5C26.3854 21.651 26.1667 20.9792 25.8438 20.4062C25.5208 19.8333 25.0573 19.3854 24.4531 19.0625C23.8594 18.7396 23.0885 18.5781 22.1406 18.5781C21.3594 18.5781 20.6615 18.7396 20.0469 19.0625C19.4427 19.375 18.9323 19.8385 18.5156 20.4531C18.099 21.0677 17.7812 21.8281 17.5625 22.7344C17.3438 23.6406 17.2344 24.6927 17.2344 25.8906V27.3438C17.2344 28.5312 17.349 29.5833 17.5781 30.5C17.8073 31.4062 18.1458 32.1719 18.5938 32.7969C19.0521 33.4115 19.6146 33.875 20.2812 34.1875C20.9479 34.5 21.724 34.6562 22.6094 34.6562C23.349 34.6562 23.9635 34.5938 24.4531 34.4688C24.9531 34.3438 25.3542 34.1927 25.6562 34.0156C25.9688 33.8281 26.2083 33.651 26.375 33.4844V29.4531H22.0938V26.1094H31.0625ZM34.7812 35.8281C34.7812 35.1615 35.0104 34.6042 35.4688 34.1562C35.9375 33.7083 36.5573 33.4844 37.3281 33.4844C38.099 33.4844 38.7135 33.7083 39.1719 34.1562C39.6406 34.6042 39.875 35.1615 39.875 35.8281C39.875 36.4948 39.6406 37.0521 39.1719 37.5C38.7135 37.9479 38.099 38.1719 37.3281 38.1719C36.5573 38.1719 35.9375 37.9479 35.4688 37.5C35.0104 37.0521 34.7812 36.4948 34.7812 35.8281Z" fill="#F5F5F5"/>
</svg>
